<?xml version="1.0" encoding="UTF-8" standalone="no"?><svg xmlns="http://www.w3.org/2000/svg" xmlns:xlink="http://www.w3.org/1999/xlink" contentStyleType="text/css" height="897px" preserveAspectRatio="none" style="width:353px;height:897px;background:#FFFFFF;" version="1.1" viewBox="0 0 353 897" width="353px" zoomAndPan="magnify"><defs/><g><rect fill="none" height="26.2969" id="_title" style="stroke:none;stroke-width:1.0;" width="273" x="33" y="5"/><text fill="#000000" font-family="sans-serif" font-size="14" font-weight="bold" lengthAdjust="spacing" textLength="263" x="38" y="22.9951">Smart Home System - ER Diagram</text><!--MD5=[3fd616f346a44cd59a91eb10b19e157c]
class User--><g id="elem_User"><rect codeLine="3" fill="#F1F1F1" height="162.0781" id="User" rx="2.5" ry="2.5" style="stroke:#181818;stroke-width:0.5;" width="166" x="7" y="44.2969"/><ellipse cx="69.75" cy="60.2969" fill="#ADD1B2" rx="11" ry="11" style="stroke:#181818;stroke-width:1.0;"/><path d="M73.8594,66.2969 L66.1406,66.2969 L66.1406,53.9063 L73.8594,53.9063 L73.8594,56.0625 L68.5938,56.0625 L68.5938,58.7344 L73.3594,58.7344 L73.3594,60.8906 L68.5938,60.8906 L68.5938,64.1406 L73.8594,64.1406 L73.8594,66.2969 Z " fill="#000000"/><text fill="#000000" font-family="sans-serif" font-size="14" lengthAdjust="spacing" textLength="32" x="90.25" y="65.1436">User</text><line style="stroke:#181818;stroke-width:0.5;" x1="8" x2="172" y1="76.2969" y2="76.2969"/><ellipse cx="18" cy="89.9453" fill="#000000" rx="3" ry="3" style="stroke:#000000;stroke-width:1.0;"/><text fill="#000000" font-family="sans-serif" font-size="14" lengthAdjust="spacing" textLength="55" x="27" y="93.292">id: UUID</text><line style="stroke:#181818;stroke-width:1.0;" x1="8" x2="172" y1="100.5938" y2="100.5938"/><text fill="#000000" font-family="sans-serif" font-size="14" lengthAdjust="spacing" textLength="119" x="13" y="117.5889">username: String</text><text fill="#000000" font-family="sans-serif" font-size="14" lengthAdjust="spacing" textLength="85" x="13" y="133.8857">email: String</text><text fill="#000000" font-family="sans-serif" font-size="14" lengthAdjust="spacing" textLength="116" x="13" y="150.1826">password: String</text><text fill="#000000" font-family="sans-serif" font-size="14" lengthAdjust="spacing" textLength="75" x="13" y="166.4795">role: String</text><text fill="#000000" font-family="sans-serif" font-size="14" lengthAdjust="spacing" textLength="149" x="13" y="182.7764">created_at: DateTime</text><text fill="#000000" font-family="sans-serif" font-size="14" lengthAdjust="spacing" textLength="154" x="13" y="199.0732">updated_at: DateTime</text></g><!--MD5=[5005bba8c6d1dda988b0bcc8eba409f6]
class House--><g id="elem_House"><rect codeLine="14" fill="#F1F1F1" height="145.7813" id="House" rx="2.5" ry="2.5" style="stroke:#181818;stroke-width:0.5;" width="166" x="7" y="283.2969"/><ellipse cx="63.25" cy="299.2969" fill="#ADD1B2" rx="11" ry="11" style="stroke:#181818;stroke-width:1.0;"/><path d="M67.3594,305.2969 L59.6406,305.2969 L59.6406,292.9063 L67.3594,292.9063 L67.3594,295.0625 L62.0938,295.0625 L62.0938,297.7344 L66.8594,297.7344 L66.8594,299.8906 L62.0938,299.8906 L62.0938,303.1406 L67.3594,303.1406 L67.3594,305.2969 Z " fill="#000000"/><text fill="#000000" font-family="sans-serif" font-size="14" lengthAdjust="spacing" textLength="45" x="83.75" y="304.1436">House</text><line style="stroke:#181818;stroke-width:0.5;" x1="8" x2="172" y1="315.2969" y2="315.2969"/><ellipse cx="18" cy="328.9453" fill="#000000" rx="3" ry="3" style="stroke:#000000;stroke-width:1.0;"/><text fill="#000000" font-family="sans-serif" font-size="14" lengthAdjust="spacing" textLength="55" x="27" y="332.292">id: UUID</text><line style="stroke:#181818;stroke-width:1.0;" x1="8" x2="172" y1="339.5938" y2="339.5938"/><text fill="#000000" font-family="sans-serif" font-size="14" lengthAdjust="spacing" textLength="88" x="13" y="356.5889">name: String</text><text fill="#000000" font-family="sans-serif" font-size="14" lengthAdjust="spacing" textLength="105" x="13" y="372.8857">address: String</text><text fill="#000000" font-family="sans-serif" font-size="14" lengthAdjust="spacing" textLength="105" x="13" y="389.1826">owner_id: UUID</text><text fill="#000000" font-family="sans-serif" font-size="14" lengthAdjust="spacing" textLength="149" x="13" y="405.4795">created_at: DateTime</text><text fill="#000000" font-family="sans-serif" font-size="14" lengthAdjust="spacing" textLength="154" x="13" y="421.7764">updated_at: DateTime</text></g><!--MD5=[fc539fa3f3b7db9b31467e896d367b3b]
class Device--><g id="elem_Device"><rect codeLine="24" fill="#F1F1F1" height="178.375" id="Device" rx="2.5" ry="2.5" style="stroke:#181818;stroke-width:0.5;" width="166" x="100" y="506.2969"/><ellipse cx="155.25" cy="522.2969" fill="#ADD1B2" rx="11" ry="11" style="stroke:#181818;stroke-width:1.0;"/><path d="M159.3594,528.2969 L151.6406,528.2969 L151.6406,515.9063 L159.3594,515.9063 L159.3594,518.0625 L154.0938,518.0625 L154.0938,520.7344 L158.8594,520.7344 L158.8594,522.8906 L154.0938,522.8906 L154.0938,526.1406 L159.3594,526.1406 L159.3594,528.2969 Z " fill="#000000"/><text fill="#000000" font-family="sans-serif" font-size="14" lengthAdjust="spacing" textLength="47" x="175.75" y="527.1436">Device</text><line style="stroke:#181818;stroke-width:0.5;" x1="101" x2="265" y1="538.2969" y2="538.2969"/><ellipse cx="111" cy="551.9453" fill="#000000" rx="3" ry="3" style="stroke:#000000;stroke-width:1.0;"/><text fill="#000000" font-family="sans-serif" font-size="14" lengthAdjust="spacing" textLength="55" x="120" y="555.292">id: UUID</text><line style="stroke:#181818;stroke-width:1.0;" x1="101" x2="265" y1="562.5938" y2="562.5938"/><text fill="#000000" font-family="sans-serif" font-size="14" lengthAdjust="spacing" textLength="88" x="106" y="579.5889">name: String</text><text fill="#000000" font-family="sans-serif" font-size="14" lengthAdjust="spacing" textLength="146" x="106" y="595.8857">serial_number: String</text><text fill="#000000" font-family="sans-serif" font-size="14" lengthAdjust="spacing" textLength="92" x="106" y="612.1826">status: String</text><text fill="#000000" font-family="sans-serif" font-size="14" lengthAdjust="spacing" textLength="92" x="106" y="628.4795">type_id: UUID</text><text fill="#000000" font-family="sans-serif" font-size="14" lengthAdjust="spacing" textLength="106" x="106" y="644.7764">house_id: UUID</text><text fill="#000000" font-family="sans-serif" font-size="14" lengthAdjust="spacing" textLength="149" x="106" y="661.0732">created_at: DateTime</text><text fill="#000000" font-family="sans-serif" font-size="14" lengthAdjust="spacing" textLength="154" x="106" y="677.3701">updated_at: DateTime</text></g><!--MD5=[1499b21a70e8fe1944bc4cdebe8209d2]
class DeviceType--><g id="elem_DeviceType"><rect codeLine="36" fill="#F1F1F1" height="113.1875" id="DeviceType" rx="2.5" ry="2.5" style="stroke:#181818;stroke-width:0.5;" width="138" x="208" y="299.7969"/><ellipse cx="234.25" cy="315.7969" fill="#ADD1B2" rx="11" ry="11" style="stroke:#181818;stroke-width:1.0;"/><path d="M238.3594,321.7969 L230.6406,321.7969 L230.6406,309.4063 L238.3594,309.4063 L238.3594,311.5625 L233.0938,311.5625 L233.0938,314.2344 L237.8594,314.2344 L237.8594,316.3906 L233.0938,316.3906 L233.0938,319.6406 L238.3594,319.6406 L238.3594,321.7969 Z " fill="#000000"/><text fill="#000000" font-family="sans-serif" font-size="14" lengthAdjust="spacing" textLength="81" x="250.75" y="320.6436">DeviceType</text><line style="stroke:#181818;stroke-width:0.5;" x1="209" x2="345" y1="331.7969" y2="331.7969"/><ellipse cx="219" cy="345.4453" fill="#000000" rx="3" ry="3" style="stroke:#000000;stroke-width:1.0;"/><text fill="#000000" font-family="sans-serif" font-size="14" lengthAdjust="spacing" textLength="55" x="228" y="348.792">id: UUID</text><line style="stroke:#181818;stroke-width:1.0;" x1="209" x2="345" y1="356.0938" y2="356.0938"/><text fill="#000000" font-family="sans-serif" font-size="14" lengthAdjust="spacing" textLength="88" x="214" y="373.0889">name: String</text><text fill="#000000" font-family="sans-serif" font-size="14" lengthAdjust="spacing" textLength="114" x="214" y="389.3857">module_id: UUID</text><text fill="#000000" font-family="sans-serif" font-size="14" lengthAdjust="spacing" textLength="126" x="214" y="405.6826">description: String</text></g><!--MD5=[2b7409a316d9d2e410653e6983353aed]
class Module--><g id="elem_Module"><rect codeLine="44" fill="#F1F1F1" height="96.8906" id="Module" rx="2.5" ry="2.5" style="stroke:#181818;stroke-width:0.5;" width="138" x="208" y="76.7969"/><ellipse cx="247.75" cy="92.7969" fill="#ADD1B2" rx="11" ry="11" style="stroke:#181818;stroke-width:1.0;"/><path d="M251.8594,98.7969 L244.1406,98.7969 L244.1406,86.4063 L251.8594,86.4063 L251.8594,88.5625 L246.5938,88.5625 L246.5938,91.2344 L251.3594,91.2344 L251.3594,93.3906 L246.5938,93.3906 L246.5938,96.6406 L251.8594,96.6406 L251.8594,98.7969 Z " fill="#000000"/><text fill="#000000" font-family="sans-serif" font-size="14" lengthAdjust="spacing" textLength="51" x="267.25" y="97.6436">Module</text><line style="stroke:#181818;stroke-width:0.5;" x1="209" x2="345" y1="108.7969" y2="108.7969"/><ellipse cx="219" cy="122.4453" fill="#000000" rx="3" ry="3" style="stroke:#000000;stroke-width:1.0;"/><text fill="#000000" font-family="sans-serif" font-size="14" lengthAdjust="spacing" textLength="55" x="228" y="125.792">id: UUID</text><line style="stroke:#181818;stroke-width:1.0;" x1="209" x2="345" y1="133.0938" y2="133.0938"/><text fill="#000000" font-family="sans-serif" font-size="14" lengthAdjust="spacing" textLength="88" x="214" y="150.0889">name: String</text><text fill="#000000" font-family="sans-serif" font-size="14" lengthAdjust="spacing" textLength="126" x="214" y="166.3857">description: String</text></g><!--MD5=[08a626af6cb7562c6593024f74888392]
class TelemetryData--><g id="elem_TelemetryData"><rect codeLine="51" fill="#F1F1F1" height="129.4844" id="TelemetryData" rx="2.5" ry="2.5" style="stroke:#181818;stroke-width:0.5;" width="161" x="102.5" y="761.2969"/><ellipse cx="130.1" cy="777.2969" fill="#ADD1B2" rx="11" ry="11" style="stroke:#181818;stroke-width:1.0;"/><path d="M134.2094,783.2969 L126.4906,783.2969 L126.4906,770.9063 L134.2094,770.9063 L134.2094,773.0625 L128.9438,773.0625 L128.9438,775.7344 L133.7094,775.7344 L133.7094,777.8906 L128.9438,777.8906 L128.9438,781.1406 L134.2094,781.1406 L134.2094,783.2969 Z " fill="#000000"/><text fill="#000000" font-family="sans-serif" font-size="14" lengthAdjust="spacing" textLength="101" x="146.9" y="782.1436">TelemetryData</text><line style="stroke:#181818;stroke-width:0.5;" x1="103.5" x2="262.5" y1="793.2969" y2="793.2969"/><ellipse cx="113.5" cy="806.9453" fill="#000000" rx="3" ry="3" style="stroke:#000000;stroke-width:1.0;"/><text fill="#000000" font-family="sans-serif" font-size="14" lengthAdjust="spacing" textLength="55" x="122.5" y="810.292">id: UUID</text><line style="stroke:#181818;stroke-width:1.0;" x1="103.5" x2="262.5" y1="817.5938" y2="817.5938"/><text fill="#000000" font-family="sans-serif" font-size="14" lengthAdjust="spacing" textLength="107" x="108.5" y="834.5889">device_id: UUID</text><text fill="#000000" font-family="sans-serif" font-size="14" lengthAdjust="spacing" textLength="149" x="108.5" y="850.8857">timestamp: DateTime</text><text fill="#000000" font-family="sans-serif" font-size="14" lengthAdjust="spacing" textLength="79" x="108.5" y="867.1826">data: String</text><text fill="#000000" font-family="sans-serif" font-size="14" lengthAdjust="spacing" textLength="149" x="108.5" y="883.4795">created_at: DateTime</text></g><!--MD5=[6747ff6b201662450f3e857d07584666]
link User to House--><g id="link_User_House"><path codeLine="61" d="M90,214.6769 C90,234.6269 90,255.6969 90,275.2769 " fill="none" id="User-House" style="stroke:#181818;stroke-width:1.0;"/><line style="stroke:#181818;stroke-width:1.0;" x1="90" x2="96" y1="275.2769" y2="283.2769"/><line style="stroke:#181818;stroke-width:1.0;" x1="90" x2="84" y1="275.2769" y2="283.2769"/><line style="stroke:#181818;stroke-width:1.0;" x1="90" x2="90" y1="275.2769" y2="283.2769"/><ellipse cx="90" cy="269.2769" fill="none" rx="4" ry="4" style="stroke:#181818;stroke-width:1.0;"/><line style="stroke:#181818;stroke-width:1.0;" x1="86" x2="94" y1="210.3869" y2="210.3869"/><line style="stroke:#181818;stroke-width:1.0;" x1="86" x2="94" y1="213.3869" y2="213.3869"/><line style="stroke:#181818;stroke-width:1.0;" x1="90" x2="90" y1="214.3869" y2="206.3869"/><text fill="#000000" font-family="sans-serif" font-size="13" lengthAdjust="spacing" textLength="32" x="91" y="249.3638">owns</text></g><!--MD5=[d32911abebf794a5b904b64e459f8d39]
link House to Device--><g id="link_House_Device"><path codeLine="62" d="M121.22,436.8469 C129.01,456.6969 137.44,478.1969 145.5,498.7369 " fill="none" id="House-Device" style="stroke:#181818;stroke-width:1.0;"/><line style="stroke:#181818;stroke-width:1.0;" x1="145.5257" x2="154.0348" y1="498.8105" y2="504.0636"/><line style="stroke:#181818;stroke-width:1.0;" x1="145.5257" x2="142.8652" y1="498.8105" y2="508.4501"/><line style="stroke:#181818;stroke-width:1.0;" x1="145.5257" x2="148.45" y1="498.8105" y2="506.2569"/><ellipse cx="143.3324" cy="493.2257" fill="none" rx="4" ry="4" style="stroke:#181818;stroke-width:1.0;"/><line style="stroke:#181818;stroke-width:1.0;" x1="116.0138" x2="123.4631" y1="434.5499" y2="431.6331"/><line style="stroke:#181818;stroke-width:1.0;" x1="117.1076" x2="124.5569" y1="437.3434" y2="434.4266"/><line style="stroke:#181818;stroke-width:1.0;" x1="121.1968" x2="118.28" y1="436.8162" y2="429.3669"/><text fill="#000000" font-family="sans-serif" font-size="13" lengthAdjust="spacing" textLength="23" x="138" y="472.3638">has</text></g><!--MD5=[8e0e7c904e1eada717ef3e8eee5bad9b]
link DeviceType to Device--><g id="link_DeviceType_Device"><path codeLine="63" d="M251.93,420.4969 C242.45,444.4069 231.43,472.1969 221.02,498.4369 " fill="none" id="DeviceType-Device" style="stroke:#181818;stroke-width:1.0;"/><line style="stroke:#181818;stroke-width:1.0;" x1="220.9139" x2="223.536" y1="498.7222" y2="508.3723"/><line style="stroke:#181818;stroke-width:1.0;" x1="220.9139" x2="212.384" y1="498.7222" y2="503.9415"/><line style="stroke:#181818;stroke-width:1.0;" x1="220.9139" x2="217.96" y1="498.7222" y2="506.1569"/><ellipse cx="223.1293" cy="493.1462" fill="none" rx="4" ry="4" style="stroke:#181818;stroke-width:1.0;"/><line style="stroke:#181818;stroke-width:1.0;" x1="249.768" x2="257.2056" y1="415.1125" y2="418.0589"/><line style="stroke:#181818;stroke-width:1.0;" x1="248.663" x2="256.1007" y1="417.9016" y2="420.848"/><line style="stroke:#181818;stroke-width:1.0;" x1="252.0136" x2="254.96" y1="420.3045" y2="412.8669"/><text fill="#000000" font-family="sans-serif" font-size="13" lengthAdjust="spacing" textLength="58" x="236" y="472.3638">is type of</text></g><!--MD5=[f5b60997c8b2b6d27dcc7cd5902e7a62]
link Module to DeviceType--><g id="link_Module_DeviceType"><path codeLine="64" d="M277,182.3869 C277,215.3869 277,257.2269 277,291.4769 " fill="none" id="Module-DeviceType" style="stroke:#181818;stroke-width:1.0;"/><line style="stroke:#181818;stroke-width:1.0;" x1="277" x2="283" y1="291.5669" y2="299.5669"/><line style="stroke:#181818;stroke-width:1.0;" x1="277" x2="271" y1="291.5669" y2="299.5669"/><line style="stroke:#181818;stroke-width:1.0;" x1="277" x2="277" y1="291.5669" y2="299.5669"/><ellipse cx="277" cy="285.5669" fill="none" rx="4" ry="4" style="stroke:#181818;stroke-width:1.0;"/><line style="stroke:#181818;stroke-width:1.0;" x1="273" x2="281" y1="178.0269" y2="178.0269"/><line style="stroke:#181818;stroke-width:1.0;" x1="273" x2="281" y1="181.0269" y2="181.0269"/><line style="stroke:#181818;stroke-width:1.0;" x1="277" x2="277" y1="182.0269" y2="174.0269"/><text fill="#000000" font-family="sans-serif" font-size="13" lengthAdjust="spacing" textLength="54" x="278" y="249.3638">contains</text></g><!--MD5=[2e955bd8db3c9302920a5b6d68b0e10c]
link Device to TelemetryData--><g id="link_Device_TelemetryData"><path codeLine="65" d="M183,692.4869 C183,712.8169 183,733.9369 183,753.1669 " fill="none" id="Device-TelemetryData" style="stroke:#181818;stroke-width:1.0;"/><line style="stroke:#181818;stroke-width:1.0;" x1="183" x2="189" y1="753.2869" y2="761.2869"/><line style="stroke:#181818;stroke-width:1.0;" x1="183" x2="177" y1="753.2869" y2="761.2869"/><line style="stroke:#181818;stroke-width:1.0;" x1="183" x2="183" y1="753.2869" y2="761.2869"/><ellipse cx="183" cy="747.2869" fill="none" rx="4" ry="4" style="stroke:#181818;stroke-width:1.0;"/><line style="stroke:#181818;stroke-width:1.0;" x1="179" x2="187" y1="688.3169" y2="688.3169"/><line style="stroke:#181818;stroke-width:1.0;" x1="179" x2="187" y1="691.3169" y2="691.3169"/><line style="stroke:#181818;stroke-width:1.0;" x1="183" x2="183" y1="692.3169" y2="684.3169"/><text fill="#000000" font-family="sans-serif" font-size="13" lengthAdjust="spacing" textLength="59" x="184" y="727.3638">produces</text></g><!--MD5=[a4c69e79db292ba10dbdc0d1ed5ff065]
@startuml
title Smart Home System - ER Diagram

entity "User" as User {
    *id: UUID
    - -
    username: String
    email: String
    password: String
    role: String
    created_at: DateTime
    updated_at: DateTime
}

entity "House" as House {
    *id: UUID
    - -
    name: String
    address: String
    owner_id: UUID
    created_at: DateTime
    updated_at: DateTime
}

entity "Device" as Device {
    *id: UUID
    - -
    name: String
    serial_number: String
    status: String
    type_id: UUID
    house_id: UUID
    created_at: DateTime
    updated_at: DateTime
}

entity "DeviceType" as DeviceType {
    *id: UUID
    - -
    name: String
    module_id: UUID
    description: String
}

entity "Module" as Module {
    *id: UUID
    - -
    name: String
    description: String
}

entity "TelemetryData" as TelemetryData {
    *id: UUID
    - -
    device_id: UUID
    timestamp: DateTime
    data: String
    created_at: DateTime
}

' Relationships
User ||- -o{ House : "owns"
House ||- -o{ Device : "has"
DeviceType ||- -o{ Device : "is type of"
Module ||- -o{ DeviceType : "contains"
Device ||- -o{ TelemetryData : "produces"
@enduml

@startuml
title Smart Home System - ER Diagram

entity "User" as User {
    *id: UUID
    - -
    username: String
    email: String
    password: String
    role: String
    created_at: DateTime
    updated_at: DateTime
}

entity "House" as House {
    *id: UUID
    - -
    name: String
    address: String
    owner_id: UUID
    created_at: DateTime
    updated_at: DateTime
}

entity "Device" as Device {
    *id: UUID
    - -
    name: String
    serial_number: String
    status: String
    type_id: UUID
    house_id: UUID
    created_at: DateTime
    updated_at: DateTime
}

entity "DeviceType" as DeviceType {
    *id: UUID
    - -
    name: String
    module_id: UUID
    description: String
}

entity "Module" as Module {
    *id: UUID
    - -
    name: String
    description: String
}

entity "TelemetryData" as TelemetryData {
    *id: UUID
    - -
    device_id: UUID
    timestamp: DateTime
    data: String
    created_at: DateTime
}

User ||- -o{ House : "owns"
House ||- -o{ Device : "has"
DeviceType ||- -o{ Device : "is type of"
Module ||- -o{ DeviceType : "contains"
Device ||- -o{ TelemetryData : "produces"
@enduml

PlantUML version 1.2022.7(Mon Aug 22 17:01:30 UTC 2022)
(GPL source distribution)
Java Runtime: OpenJDK Runtime Environment
JVM: OpenJDK 64-Bit Server VM
Default Encoding: UTF-8
Language: en
Country: null
--></g></svg>